<?xml version="1.0" standalone="no"?>
<!DOCTYPE svg PUBLIC "-//W3C//DTD SVG 20010904//EN"
 "http://www.w3.org/TR/2001/REC-SVG-20010904/DTD/svg10.dtd">
<svg version="1.0" xmlns="http://www.w3.org/2000/svg"
 width="512.000000pt" height="512.000000pt" viewBox="0 0 512.000000 512.000000"
 preserveAspectRatio="xMidYMid meet">
<metadata>
Created by potrace 1.11, written by Peter Selinger 2001-2013
</metadata>
<g transform="translate(0.000000,512.000000) scale(0.100000,-0.100000)"
fill="#000000" stroke="none">
<path d="M1768 4654 c-2 -1 -32 -4 -66 -6 -35 -1 -66 -7 -69 -11 -3 -5 -5
-565 -5 -1246 l-1 -1237 -151 0 -151 1 -1 1203 c0 661 -3 1205 -7 1208 -7 7
-142 -39 -197 -66 l-35 -18 1 -1213 c2 -1299 0 -1237 51 -1335 44 -83 157
-168 253 -189 187 -41 380 66 450 250 l23 60 2 1298 c0 713 -2 1297 -5 1298
-14 3 -90 6 -92 3z"/>
<path d="M2175 4651 c-3 -2 -5 -186 -5 -408 l0 -404 53 29 c210 118 472 116
685 -6 l42 -24 0 409 0 409 -117 0 -118 -1 -1 -187 c-1 -102 -4 -191 -8 -196
-3 -5 -71 -9 -151 -10 l-145 0 -1 81 c0 45 0 133 0 195 1 61 -2 113 -6 113
-24 4 -224 5 -228 0z"/>
<path d="M3256 4651 c-1 -3 -2 -589 -1 -1301 2 -1208 3 -1298 19 -1344 59
-165 205 -269 375 -268 142 2 274 81 335 202 52 102 50 41 51 1328 0 662 -2
1207 -5 1211 -15 23 -230 104 -231 87 0 -6 -1 -551 -2 -1211 l-2 -1200 -150 0
-150 0 0 1243 c0 683 -2 1242 -5 1243 -78 11 -230 17 -234 10z"/>
<path d="M715 4259 c-27 -23 -78 -66 -111 -96 l-62 -54 0 -352 c-1 -194 -1
-364 -1 -380 l-1 -28 -152 3 -151 3 0 168 c1 92 -1 167 -4 167 -2 0 -26 -46
-53 -102 -61 -128 -114 -285 -140 -415 -20 -98 -39 -243 -33 -243 2 0 27 13
56 29 189 106 425 111 627 12 41 -20 78 -37 83 -39 4 -2 7 305 7 682 0 377 -3
686 -7 686 -5 -1 -30 -19 -58 -41z"/>
<path d="M4340 3615 c0 -377 2 -685 5 -685 3 0 29 13 58 29 198 110 453 111
654 1 28 -16 53 -26 56 -24 7 8 -23 198 -48 303 -14 57 -41 145 -60 195 -33
87 -111 256 -118 256 -2 0 -4 -66 -5 -147 0 -82 -1 -158 -1 -170 -1 -23 -2
-23 -151 -23 -149 0 -150 0 -151 23 0 12 0 182 0 377 l0 355 -47 43 c-66 60
-178 152 -186 152 -3 0 -6 -308 -6 -685z"/>
<path d="M2449 3616 c-61 -17 -151 -77 -190 -127 -17 -22 -44 -70 -60 -107
l-28 -67 2 -1415 2 -1415 115 0 115 0 2 1315 c2 723 3 1338 3 1365 l0 50 150
0 150 0 0 -140 c0 -77 1 -691 3 -1365 l2 -1225 118 0 117 -1 -2 1426 -3 1425
-32 68 c-34 71 -108 153 -165 182 -84 43 -210 56 -299 31z"/>
<path d="M280 2701 c-95 -31 -143 -65 -204 -145 -58 -76 -77 -155 -71 -299 3
-67 7 -133 9 -147 3 -14 10 -52 15 -85 21 -119 41 -195 80 -302 38 -101 116
-273 125 -273 2 0 4 188 4 418 1 229 1 420 1 425 1 4 69 7 151 7 l150 0 1 -47
c0 -27 0 -312 0 -634 l1 -586 64 -58 c78 -69 159 -135 168 -135 4 0 6 349 6
774 -1 728 -2 778 -19 829 -28 82 -46 111 -98 162 -47 45 -124 90 -173 101
-64 14 -157 12 -210 -5z"/>
<path d="M4608 2696 c-118 -39 -205 -126 -245 -245 l-22 -66 -1 -772 c0 -425
3 -773 6 -773 9 0 127 96 186 151 l46 44 1 615 c0 338 0 623 0 633 1 15 15 17
151 17 113 0 150 -3 151 -12 0 -7 1 -199 1 -425 0 -227 3 -413 5 -413 10 0
105 215 137 311 57 174 84 320 91 500 6 158 -20 244 -102 335 -97 106 -264
148 -405 100z"/>
<path d="M1089 1528 c-1 -2 -2 -196 -3 -432 -1 -333 2 -432 11 -442 14 -14
159 -72 201 -80 l27 -6 0 269 0 268 150 0 150 0 1 -299 c1 -214 5 -300 13
-305 11 -7 64 -11 176 -15 l50 -1 1 510 c0 281 -2 515 -4 522 -3 8 -15 5 -40
-11 -121 -74 -307 -109 -456 -85 -76 13 -182 50 -234 83 -23 14 -43 25 -43 24z"/>
<path d="M3257 1522 c-2 -4 -3 -239 -3 -522 l1 -515 45 1 c120 4 170 8 181 15
9 5 12 86 13 305 l1 299 150 0 150 0 1 -264 c0 -175 4 -266 11 -268 12 -4 152
45 198 70 l30 15 0 435 0 434 -65 -32 c-130 -65 -213 -84 -342 -80 -130 4
-238 33 -328 90 -21 14 -41 21 -43 17z"/>
</g>
</svg>
